<?xml version="1.0" encoding="UTF-8"?>
<svg id="Layer_1" xmlns="http://www.w3.org/2000/svg" version="1.1" viewBox="0 0 700 677">
  <!-- Generator: Adobe Illustrator 29.0.1, SVG Export Plug-In . SVG Version: 2.1.0 Build 192)  -->
  <defs>
    <style>
      .st0 {
        fill: #ff5a00;
      }
    </style>
  </defs>
  <path class="st0" d="M167.6,411.6c53.8,49.6,126.1,49.3,194.9,47.8,50.1,6.2,66.6-57.2,21-76.5-55.3-9.7-116.3,11.2-164.1-27.2-68.1-50.3-53.8-171.8,28.8-197.8,15.5-5.2,29.2-4.7,45.7-4.8,47.9.5,98.9-.9,146.5.2-1.5,10.1-26,56.3-24.4,61.9,12.3,2.9,30.1.9,43.1,1.6,10.8.2,27.8.8,37.9-.5,13.2-28.6,25.8-57.6,37.8-86.7,3.7-5.8,8.3-18.5,11.2-25.2,3.2-9.3,9.6-18,10.7-27.8-94.4-2.6-192.3-2.2-286.7-1-171.4,7.1-224.9,230-102.3,336.1Z"/>
  <path class="st0" d="M558.4,419.3c0-93.2-76.9-182.3-170.9-190.7-24.3-1.6-49.7-.7-74.1-.7-32.5-.5-62.3-4.6-66.7,37.3,0,33.2,33.3,42.3,61,39.3,13.3.1,41.8,0,55.1.3,17.1,0,34.3,1.3,50.2,8.3,92.4,40.1,95.7,180.1-2,215.5-25.5,8.4-53,5.5-79.4,5.2-30.4-1.8-83.9-.3-113.6-2.8,6.3-13.5,11.3-27.3,18.1-40.7,2.1-4.1,1.8-6.9,5.3-10.5.2-3.8,3-6.6,2-10.7-17.5-3.4-41.6-.9-60-1.9-12.3-.3-21.6-2.3-25.3,12.4-10.3,27.5-22.9,54.4-33.5,81.5-2.8,7.8-18.8,39.9-18.4,45.7,37.1,3.8,106.8,1.4,145.4,3.3,54.6-.2,109.9,5.1,164.1-2.3,86.6-16.2,148.1-101.6,142.7-188.4Z"/>
</svg>