<svg version="1.1" xmlns="http://www.w3.org/2000/svg" style="display: block;" viewBox="0 0 2048 1981" width="700" height="677" preserveAspectRatio="none">
<defs>
	<linearGradient id="Gradient1" gradientUnits="userSpaceOnUse" x1="1621.13" y1="1117.02" x2="1625.94" y2="1116.94">
		<stop class="stop0" offset="0" stop-opacity="0" stop-color="rgb(208,102,54)"/>
		<stop class="stop1" offset="1" stop-opacity="0.0941176" stop-color="rgb(211,96,52)"/>
	</linearGradient>
	<linearGradient id="Gradient2" gradientUnits="userSpaceOnUse" x1="327.775" y1="1702.4" x2="353.831" y2="1719.29">
		<stop class="stop0" offset="0" stop-opacity="1" stop-color="rgb(154,79,65)"/>
		<stop class="stop1" offset="1" stop-opacity="1" stop-color="rgb(192,119,88)"/>
	</linearGradient>
	<linearGradient id="Gradient3" gradientUnits="userSpaceOnUse" x1="1181.34" y1="1299.93" x2="799.688" y2="1167.95">
		<stop class="stop0" offset="0" stop-opacity="1" stop-color="rgb(207,112,82)"/>
		<stop class="stop1" offset="1" stop-opacity="1" stop-color="rgb(158,113,100)"/>
	</linearGradient>
</defs>
<path transform="translate(0,0)" fill="rgb(250,120,74)" d="M 789.787 220.904 C 802.931 218.997 837.161 219.923 851.86 219.823 L 994.501 219.649 C 1055.76 219.61 1128.26 214.572 1189.13 217.993 C 1199.97 217.75 1210.82 217.795 1221.66 218.129 C 1245.9 216.67 1275.17 218.603 1299.42 219.529 C 1320.54 220.189 1341.67 220.46 1362.81 220.343 L 1513.82 220.805 C 1546.4 220.883 1596.12 220.425 1628.67 223.811 C 1628.54 226.809 1628.31 233.85 1627.25 236.336 C 1617.51 259.169 1607.25 282.47 1597.43 305.207 C 1588.99 324.746 1575.54 361.823 1564.69 378.86 C 1560.14 392.714 1553.77 405.132 1548.21 418.504 C 1538.53 442.099 1529.07 465.447 1517.59 488.278 C 1514.12 495.196 1511.66 504.56 1508.33 512.061 C 1493.25 545.938 1476.68 579.725 1463.53 614.321 C 1461.19 620.459 1457 626.46 1454.05 632.469 C 1424.31 636.323 1374.72 634.527 1343.08 634.067 C 1307.28 633.546 1257.77 635.079 1223.19 631.69 C 1219.81 631.061 1219.93 631.14 1216.93 629.513 C 1212.13 613.234 1283.88 478.081 1288.25 448.502 C 1278.91 446.482 1269.19 446.719 1259.65 446.703 C 1165.67 449.012 1067.98 447.823 973.835 447.921 L 859.667 448.007 C 844.874 448.012 821.342 448.897 807.515 448.165 C 772.399 450.837 759.753 452.352 726.061 462.142 L 725.282 462.495 C 714.503 467.293 703.75 469.978 692.606 475.067 C 631.04 503.18 582.608 554.219 552.741 614.477 C 551.193 617.062 544.505 622.792 544.286 625.522 C 543.162 639.514 533.649 648.997 530.009 662.033 C 491.406 800.288 525.332 950.855 641.949 1040.98 C 649.887 1047.11 663.535 1054.46 669.805 1060.44 C 749.261 1103.37 779.588 1109.87 867.589 1111.47 C 888.987 1110.65 916.206 1111.95 938.313 1112.04 L 1020.17 1113.13 C 1046.85 1113.47 1098.68 1112.63 1122.08 1120.53 C 1195.14 1145.24 1227.62 1247.43 1173.47 1306.22 C 1140.24 1342.3 1105.47 1343.81 1060.67 1344.4 C 994.934 1345.67 929.176 1344.81 863.498 1341.83 C 843.465 1341.02 807.57 1340.66 788.54 1337.06 C 766.14 1336.82 743.774 1329.27 722.293 1324.05 C 636.402 1303.76 556.806 1262.69 490.489 1204.46 C 458.882 1176.53 435.342 1149.43 410.573 1115.77 C 350.183 1034.86 311.55 939.809 298.364 839.707 C 290.806 779.903 292.401 706.144 305.416 647.311 C 309.895 627.067 314.111 603.739 320.589 584.077 C 375.412 417.253 505.945 283.875 676.601 236.979 C 706.913 228.649 758.964 219.973 789.787 220.904 z"/>
<path transform="translate(0,0)" fill="url(#Gradient3)" d="M 867.589 1111.47 C 888.987 1110.65 916.206 1111.95 938.313 1112.04 L 1020.17 1113.13 C 1046.85 1113.47 1098.68 1112.63 1122.08 1120.53 C 1195.14 1145.24 1227.62 1247.43 1173.47 1306.22 C 1140.24 1342.3 1105.47 1343.81 1060.67 1344.4 C 994.934 1345.67 929.176 1344.81 863.498 1341.83 C 843.465 1341.02 807.57 1340.66 788.54 1337.06 C 796.977 1333.19 823.749 1340.2 835.491 1338.43 L 834.031 1336.51 C 821.965 1330.79 802.403 1333.93 790.02 1331.92 C 793.794 1330.28 837.533 1333.09 845.282 1333.23 C 866.932 1333.62 889.085 1333.11 910.746 1333 L 1007.66 1332.92 C 1044.16 1332.82 1084.06 1334.92 1119.99 1330.03 C 1129.68 1328.66 1139.19 1322.67 1147.04 1317.13 C 1200.69 1276.5 1202.37 1199.69 1154.25 1153.86 C 1121.52 1117.08 1084.87 1126.17 1039.95 1124.98 C 986.027 1123.55 928.231 1122.12 873.968 1122.21 C 858.841 1122.24 843.095 1121.94 827.847 1119.46 L 827.653 1118.32 C 823.906 1116.1 823.363 1118.34 818.348 1115.46 C 826.825 1110.96 854.343 1114.39 867.589 1111.47 z"/>
<path transform="translate(0,0)" fill="rgb(206,119,89)" d="M 798.967 442.945 C 816.963 441.425 834.035 440.655 851.983 439.806 C 868.504 439.696 888.804 436.01 905.154 437.172 C 936.228 439.381 965.052 438.327 995.998 437.477 C 1019.49 436.832 1044.64 439.333 1068.25 439.279 C 1077.67 439.257 1087.25 437.335 1096.69 437.091 C 1119.4 437.502 1141.75 437.233 1164.48 437.581 C 1185.89 437.908 1211.65 435.099 1232.81 435.693 C 1245.78 436.056 1269.31 439.279 1282.57 440.827 C 1286.67 440.768 1288.28 440.304 1291.54 442.398 C 1292.38 443.778 1293.14 444.865 1293.8 446.336 L 1288.25 448.502 C 1278.91 446.482 1269.19 446.719 1259.65 446.703 C 1165.67 449.012 1067.98 447.823 973.835 447.921 L 859.667 448.007 C 844.874 448.012 821.342 448.897 807.515 448.165 C 804.996 447.881 801.98 447.741 799.409 447.56 L 798.499 446.751 L 797.913 447.18 L 799.638 445.489 L 798.967 442.945 z"/>
<path transform="translate(0,0)" fill="rgb(203,106,72)" d="M 1282.57 440.827 C 1286.67 440.768 1288.28 440.304 1291.54 442.398 C 1292.38 443.778 1293.14 444.865 1293.8 446.336 L 1288.25 448.502 C 1278.91 446.482 1269.19 446.719 1259.65 446.703 C 1270.97 441.741 1270.44 446.478 1282.57 440.827 z"/>
<path transform="translate(0,0)" fill="rgb(180,106,85)" d="M 1221.66 218.129 C 1245.9 216.67 1275.17 218.603 1299.42 219.529 C 1320.54 220.189 1341.67 220.46 1362.81 220.343 L 1513.82 220.805 C 1546.4 220.883 1596.12 220.425 1628.67 223.811 C 1628.54 226.809 1628.31 233.85 1627.25 236.336 C 1617.51 259.169 1607.25 282.47 1597.43 305.207 C 1588.99 324.746 1575.54 361.823 1564.69 378.86 C 1566.31 368.789 1576.01 350.92 1580.16 341.134 C 1589.51 318.707 1598.99 296.211 1608.3 273.803 C 1611.53 266.045 1628.59 232.816 1625.71 227.839 C 1621.04 225.825 1614.8 225.918 1609.68 225.62 C 1509.78 219.818 1409.25 222.109 1309.22 222.556 C 1290.27 222.641 1270.81 219.727 1251.72 219.692 C 1260.17 224.83 1291 225.715 1301.06 224.732 C 1306.88 224.163 1322.56 223.006 1327.25 224.33 C 1301.1 230.669 1256.99 224.127 1229.4 225.257 C 1214.65 225.861 1188.8 226.595 1174.75 224.213 C 1187.83 222.809 1202.01 224.731 1214.49 220.221 C 1217.64 219.085 1218.31 218.912 1221.66 218.129 z"/>
<path transform="translate(0,0)" fill="rgb(168,97,78)" d="M 789.787 220.904 C 802.931 218.997 837.161 219.923 851.86 219.823 L 994.501 219.649 C 1055.76 219.61 1128.26 214.572 1189.13 217.993 C 1199.97 217.75 1210.82 217.795 1221.66 218.129 C 1218.31 218.912 1217.64 219.085 1214.49 220.221 C 1202.01 224.731 1187.83 222.809 1174.75 224.213 L 1173.36 224.005 C 1146.85 225.965 1117.66 224.388 1090.95 224.215 C 1074.97 224.112 1059.7 225.157 1043.56 224.756 L 1043.56 224.102 C 1047.47 224.067 1075.02 224.588 1076.24 221.981 L 1075.07 223.037 L 1073.64 220.056 C 1067.06 218.745 1053.7 220.848 1046.01 221.166 C 1019.35 222.27 993.818 222.177 967.159 221.518 C 917.345 220.288 867.228 223.421 817.474 221.669 C 808.21 221.343 799.044 221.905 789.787 220.904 z"/>
<path transform="translate(0,0)" fill="rgb(180,106,85)" d="M 1288.25 448.502 L 1293.8 446.336 C 1291.47 468.526 1279.35 497.077 1269.71 517.408 C 1258.69 540.651 1248.98 564.962 1238.17 588.371 C 1235.53 594.086 1228.44 615.937 1224.82 619.273 L 1224.26 618.01 L 1224.83 617.168 C 1226.84 614.118 1226.94 614.171 1228.08 610.696 C 1233.79 593.26 1241.37 577.222 1248.96 560.505 C 1253.61 550.277 1257.41 539.151 1262.23 528.978 C 1269.42 513.815 1279.4 496.522 1283.12 479.938 C 1284.93 471.857 1290.91 465.308 1289.59 458.538 C 1285.05 460.461 1285.23 470.829 1283.04 474.777 C 1280.06 480.138 1276.55 485.08 1274.31 490.898 C 1269.51 502.829 1261.86 519.902 1257.22 531.238 C 1250.41 547.903 1219.93 612.181 1218.72 627.195 C 1220.47 629.211 1221.19 629.919 1223.19 631.69 C 1219.81 631.061 1219.93 631.14 1216.93 629.513 C 1212.13 613.234 1283.88 478.081 1288.25 448.502 z"/>
<path transform="translate(0,0)" fill="rgb(168,97,78)" d="M 669.805 1060.44 C 749.261 1103.37 779.588 1109.87 867.589 1111.47 C 854.343 1114.39 826.825 1110.96 818.348 1115.46 C 823.363 1118.34 823.906 1116.1 827.653 1118.32 L 827.847 1119.46 C 810.366 1117.73 744.063 1107.33 729.994 1099.25 L 731.237 1098.69 C 740.073 1102.55 788.677 1115.42 795.567 1111.55 L 795.001 1109.87 C 786.054 1105.59 760.259 1103.82 751.233 1100.11 C 737.364 1094.39 675.942 1071.5 669.805 1060.44 z"/>
<path transform="translate(0,0)" fill="rgb(180,106,85)" d="M 726.061 462.142 C 730.067 456.022 736.524 456.928 743.354 454.763 L 743.42 452.357 C 739.435 446.847 731.75 455.983 725.037 454.617 C 759.324 442.252 761.164 443.721 798.967 442.945 L 799.638 445.489 L 797.913 447.18 L 798.499 446.751 L 799.409 447.56 C 801.98 447.741 804.996 447.881 807.515 448.165 C 772.399 450.837 759.753 452.352 726.061 462.142 z"/>
<path transform="translate(0,0)" fill="rgb(250,120,74)" d="M 1007.28 891.109 L 900.124 891.144 C 873.793 891.106 837.943 893.093 813.132 887.082 C 761.506 874.573 720.306 831.114 721.695 776.123 C 722.892 728.725 752.947 682.227 800.044 669.846 C 815.449 665.99 836.952 666.725 853.102 666.687 L 916.902 666.953 C 964.216 667.042 1012.48 665.276 1059.8 666.565 C 1080.91 667.14 1113.29 666.742 1133.7 668.976 C 1260.05 682.474 1377.64 739.979 1465.87 831.427 C 1536.22 905.51 1587.83 995.341 1616.4 1093.43 C 1618.93 1102.29 1619.7 1113.82 1622.04 1123.51 L 1622.5 1128.21 L 1626.32 1138.48 C 1632 1166.97 1633.56 1198.26 1633.61 1226.97 C 1633.48 1272.2 1636.16 1319.51 1622.91 1363.28 C 1620.74 1370.82 1620.75 1377.79 1618.43 1385.36 C 1605.3 1428.11 1590.51 1474.29 1567.8 1512.78 C 1560.48 1525.2 1553.11 1537.77 1546.71 1549.35 C 1485.5 1660.08 1370.52 1734.15 1251.25 1769.08 C 1238.65 1772.77 1228.69 1775.96 1216.02 1778.24 C 1144.54 1791.71 1075.13 1788.42 1002.49 1788.42 C 913.6 1788.39 824.71 1787.25 735.846 1784.99 L 489.242 1780.84 C 454.925 1780.73 420.61 1780.39 386.298 1779.81 C 369.193 1779.59 351.758 1779.87 334.715 1778.97 C 333.072 1779.06 331.427 1779.11 329.781 1779.13 C 324.38 1779.19 314.242 1779.05 310.428 1775.32 C 309.247 1758.95 355.856 1664.95 363.897 1642.72 L 364.272 1641.65 C 366.597 1631.96 368.226 1629.29 373.301 1621.12 C 378.728 1605.16 382.786 1597.09 388.781 1582.31 C 390.062 1575.5 404.687 1544.91 408.07 1536.2 C 425.422 1491.53 446.342 1448.34 462.192 1403.11 C 467.498 1387.96 473.294 1374.28 488.154 1367.41 C 503.294 1365.75 520.814 1366.93 536.241 1366.87 C 570.671 1366.74 604.613 1368.45 639.093 1367.8 C 651.808 1368.05 705.259 1367.12 711.857 1372.57 C 714.971 1384.4 706.757 1392.53 706.052 1403.78 C 695.776 1414.22 696.556 1422.5 690.493 1434.53 C 675.995 1463.31 665.356 1492.48 650.363 1521.15 C 646.776 1535.37 645.589 1541.4 637.59 1553.67 L 648.772 1555.49 C 659.903 1557.91 684.716 1557.16 697.444 1557.12 C 724.516 1556.93 751.589 1556.96 778.661 1557.21 L 969.967 1561.99 C 1007.52 1563.45 1045.11 1563.97 1082.69 1563.56 C 1109.35 1563.1 1131.76 1562.47 1158.06 1557.22 C 1165.42 1555.75 1173.95 1555.71 1181.25 1553.78 C 1188.33 1551.9 1195.5 1549.13 1202.39 1546.7 C 1243.21 1532.5 1280.53 1509.74 1311.84 1479.94 C 1324.58 1467.85 1335.84 1453.89 1347.62 1440.74 C 1349.9 1435.74 1363.15 1416.88 1367.18 1410.71 C 1382.8 1386.8 1392.6 1362.56 1401.06 1335.32 C 1404.91 1323.82 1406.19 1311.36 1409.07 1299.7 C 1429 1219.23 1404.85 1130.61 1367.41 1059.04 C 1365.72 1057.74 1350.65 1034.56 1348.65 1031.52 C 1312.24 976.033 1266.86 945.379 1208.33 916.164 C 1198.08 912.388 1177.47 904.324 1167.63 902.044 C 1132.3 893.854 1097.32 892.174 1061.32 891.893 C 1050.48 891.808 1014.34 892.36 1007.28 891.109 z"/>
<path transform="translate(0,0)" fill="rgb(180,106,85)" d="M 1347.62 1440.74 L 1349.47 1440.93 C 1351.54 1437.86 1359.01 1425.91 1361.46 1424.36 C 1361 1448.69 1294.82 1503.11 1274.46 1519.62 C 1267.14 1525.55 1246.94 1531.55 1239.9 1539.76 C 1217.89 1552.24 1173.96 1564.96 1148.55 1569.42 C 1131.74 1572.37 1094.48 1571.84 1075.94 1571.9 C 1037.06 1572.27 998.185 1571.97 959.32 1571.01 C 892.212 1569.85 824.95 1570.7 757.717 1568.66 C 749.178 1563.54 668.653 1572.5 643.964 1559.24 L 644.356 1558.72 L 643.937 1557.7 L 648.772 1555.49 C 659.903 1557.91 684.716 1557.16 697.444 1557.12 C 724.516 1556.93 751.589 1556.96 778.661 1557.21 L 969.967 1561.99 C 1007.52 1563.45 1045.11 1563.97 1082.69 1563.56 C 1109.35 1563.1 1131.76 1562.47 1158.06 1557.22 C 1165.42 1555.75 1173.95 1555.71 1181.25 1553.78 C 1188.33 1551.9 1195.5 1549.13 1202.39 1546.7 C 1243.21 1532.5 1280.53 1509.74 1311.84 1479.94 C 1324.58 1467.85 1335.84 1453.89 1347.62 1440.74 z"/>
<path transform="translate(0,0)" fill="rgb(206,119,89)" d="M 639.093 1367.8 C 651.808 1368.05 705.259 1367.12 711.857 1372.57 C 714.971 1384.4 706.757 1392.53 706.052 1403.78 C 695.776 1414.22 696.556 1422.5 690.493 1434.53 C 675.995 1463.31 665.356 1492.48 650.363 1521.15 C 647.042 1522.83 644.472 1522.07 640.685 1521.67 C 645.439 1499.48 664.715 1468.72 672.132 1444.94 C 676.195 1431.92 697.474 1401.5 687.794 1387.09 C 682.466 1379.16 658.609 1377.37 649.743 1377.22 C 645.904 1374.2 639.907 1377.23 635.572 1373.98 C 635.936 1370.4 636.223 1371.16 639.093 1367.8 z"/>
<path transform="translate(0,0)" fill="rgb(203,106,72)" d="M 1367.41 1059.04 C 1374.3 1061.92 1383.69 1085.28 1386.55 1092.61 C 1411.51 1156.64 1428.36 1228.54 1411.51 1296.76 C 1409.81 1303.66 1409.14 1311.44 1408.39 1318.52 C 1407.55 1325.88 1394.09 1356.09 1397.93 1361.69 L 1399.16 1361.38 C 1402.86 1354.22 1403.77 1347.01 1406.94 1339.66 C 1409.51 1333.69 1406.51 1324.88 1408.17 1317.99 L 1410.36 1319.12 C 1411.82 1315.25 1413.25 1310.5 1416.55 1307.93 C 1423.94 1287.81 1418.82 1205.17 1418.86 1179.67 C 1418.86 1182.83 1406.51 1134.34 1406.59 1134.56 C 1399.09 1113.88 1390.85 1080.86 1377.75 1063.4 L 1378.71 1062.33 C 1388.75 1070.26 1419.11 1162.87 1420.47 1180.88 C 1423.15 1216.45 1423.23 1269.76 1419.32 1306.48 C 1418.58 1313.45 1413.24 1319.23 1411.47 1325.9 C 1407.96 1343.46 1402.26 1360.87 1395.88 1377.57 C 1393.88 1382.79 1386.95 1393.92 1383.96 1399.45 C 1363.68 1436.9 1338.18 1469.03 1305.61 1496.5 C 1297.48 1503.35 1287.59 1513.52 1278.64 1519.24 C 1269.83 1524.87 1249.56 1536.6 1239.9 1539.76 C 1246.94 1531.55 1267.14 1525.55 1274.46 1519.62 C 1294.82 1503.11 1361 1448.69 1361.46 1424.36 C 1359.01 1425.91 1351.54 1437.86 1349.47 1440.93 L 1347.62 1440.74 C 1349.9 1435.74 1363.15 1416.88 1367.18 1410.71 C 1382.8 1386.8 1392.6 1362.56 1401.06 1335.32 C 1404.91 1323.82 1406.19 1311.36 1409.07 1299.7 C 1429 1219.23 1404.85 1130.61 1367.41 1059.04 z"/>
<path transform="translate(0,0)" fill="rgb(168,97,78)" d="M 388.781 1582.31 C 390.062 1575.5 404.687 1544.91 408.07 1536.2 C 425.422 1491.53 446.342 1448.34 462.192 1403.11 C 467.498 1387.96 473.294 1374.28 488.154 1367.41 L 489.852 1370.09 C 497.488 1371.08 517.442 1371.21 522.573 1372.71 C 514.954 1372.64 488.456 1370.9 485.447 1374.88 C 471.647 1393.12 462.951 1425.81 453.459 1446.73 C 435.382 1486.56 419.97 1527.58 402.478 1567.17 C 397.908 1572.35 397.444 1577.3 393.288 1582.45 C 391.794 1584.29 390.511 1586.35 389.21 1588.32 L 389.292 1587.4 C 389.537 1584.42 389.878 1584.78 388.781 1582.31 z"/>
<path transform="translate(0,0)" fill="url(#Gradient2)" d="M 334.715 1778.97 C 333.072 1779.06 331.427 1779.11 329.781 1779.13 C 324.38 1779.19 314.242 1779.05 310.428 1775.32 C 309.247 1758.95 355.856 1664.95 363.897 1642.72 L 364.272 1641.65 C 365.799 1645.04 366.067 1645.27 368.365 1648.29 C 354.579 1684.15 337.672 1720.03 324.048 1756.04 C 315.269 1779.24 327.842 1773.71 334.715 1778.97 z"/>
<path transform="translate(0,0)" fill="rgb(180,106,85)" d="M 488.154 1367.41 C 503.294 1365.75 520.814 1366.93 536.241 1366.87 C 570.671 1366.74 604.613 1368.45 639.093 1367.8 C 636.223 1371.16 635.936 1370.4 635.572 1373.98 C 639.907 1377.23 645.904 1374.2 649.743 1377.22 C 644.518 1377.81 639.751 1376.93 634.542 1376.39 C 597.041 1372.49 560.248 1372.84 522.573 1372.71 C 517.442 1371.21 497.488 1371.08 489.852 1370.09 L 488.154 1367.41 z"/>
<path transform="translate(0,0)" fill="rgb(168,97,78)" d="M 1007.28 891.109 C 1014.31 886.563 1118.4 893.636 1124.3 890.557 C 1113.34 884.5 1074.24 888.289 1059.59 886.412 C 1044.86 884.523 1030.75 888.477 1015.55 886.071 L 1015.36 885.506 C 1028.63 883.325 1057.13 885.27 1071.29 885.427 C 1101.17 885.758 1129.73 886.707 1159.28 891.888 C 1167.48 893.326 1177.59 896.908 1186.06 899.131 C 1174.24 901.643 1156.95 885.721 1149.77 896.678 C 1161.75 899.162 1199.87 906.701 1207.64 915.4 L 1208.33 916.164 C 1198.08 912.388 1177.47 904.324 1167.63 902.044 C 1132.3 893.854 1097.32 892.174 1061.32 891.893 C 1050.48 891.808 1014.34 892.36 1007.28 891.109 z"/>
<path transform="translate(0,0)" fill="rgb(206,119,89)" d="M 402.478 1567.17 C 399.125 1575.81 395.331 1584.15 392.493 1592.97 C 391.552 1595.9 391.638 1607.35 390.803 1608.63 C 384.95 1617.54 380.128 1622.45 375.493 1632.51 C 375.485 1628.77 375.869 1626.02 375.723 1622.09 L 374.992 1622.15 L 373.301 1621.12 C 378.728 1605.16 382.786 1597.09 388.781 1582.31 C 389.878 1584.78 389.537 1584.42 389.292 1587.4 L 389.21 1588.32 C 390.511 1586.35 391.794 1584.29 393.288 1582.45 C 397.444 1577.3 397.908 1572.35 402.478 1567.17 z"/>
<path transform="translate(0,0)" fill="rgb(203,106,72)" d="M 640.685 1521.67 C 644.472 1522.07 647.042 1522.83 650.363 1521.15 C 646.776 1535.37 645.589 1541.4 637.59 1553.67 L 648.772 1555.49 L 643.937 1557.7 L 644.356 1558.72 L 643.964 1559.24 C 638.406 1560.85 638.819 1560.53 633.144 1558.89 C 630.662 1547.81 637.059 1532.61 640.685 1521.67 z"/>
<path transform="translate(0,0)" fill="rgb(206,119,89)" d="M 633.144 1558.89 C 638.819 1560.53 638.406 1560.85 643.964 1559.24 C 668.653 1572.5 749.178 1563.54 757.717 1568.66 C 721.933 1568.66 683.076 1569.24 647.124 1568.49 C 640.884 1568.35 636.643 1563.75 633.144 1558.89 z"/>
<path transform="translate(0,0)" fill="rgb(180,106,85)" d="M 373.301 1621.12 L 374.992 1622.15 L 375.723 1622.09 C 375.869 1626.02 375.485 1628.77 375.493 1632.51 L 368.365 1648.29 C 366.067 1645.27 365.799 1645.04 364.272 1641.65 C 366.597 1631.96 368.226 1629.29 373.301 1621.12 z"/>
<path transform="translate(0,0)" fill="rgb(203,106,72)" fill-opacity="0.0117647" d="M 1628.32 1121.99 C 1628.68 1128.69 1633.41 1135.13 1626.32 1138.48 L 1622.5 1128.21 C 1627.37 1125.04 1626.51 1126.6 1628.32 1121.99 z"/>
<path transform="translate(0,0)" fill="url(#Gradient1)" d="M 1622.04 1123.51 C 1622.32 1118.56 1622.34 1114.86 1622.25 1109.95 C 1624.6 1115.43 1624.13 1117.42 1628.32 1121.99 C 1626.51 1126.6 1627.37 1125.04 1622.5 1128.21 L 1622.04 1123.51 z"/>
</svg>